<?xml version="1.0" encoding="UTF-8"?><svg id="a" xmlns="http://www.w3.org/2000/svg" viewBox="0 0 1053.49 173.06"><defs><style>.b{fill:#fff;}.c{fill:none;stroke:#fff;stroke-linecap:round;stroke-linejoin:round;stroke-width:6px;}</style></defs><g><path class="b" d="M481.87,67.5c11.5,0,13.86,.17,14.32,.23,11.98,1.41,23.14,5.38,31.42,11.18,12.26,8.64,18.22,20.02,18.22,34.8s-5.12,25.61-15.64,34.61c-9.75,8.33-20.15,12.49-33.74,13.49-.33,.02-.6,.04-.83,.06v-20.33c.92-.22,1.84-.44,2.76-.68,14.54-3.71,22.55-13.36,22.55-27.16,0-12.11-8.16-21.38-22.39-25.43-2.06-.59-4.63-.87-7.85-.87-3.93,0-7.51,.44-7.66,.46-3.01,.37-5.26,2.93-5.26,5.95v67.61h-24.02V67.7c7.05-.08,18.64-.19,28.13-.19m0-6c-10.44,0-23.45,.14-29.98,.22-2.3,.03-4.15,1.9-4.15,4.21v97.3c0,2.32,1.88,4.21,4.21,4.21h27.61c2.32,0,4.21-1.88,4.21-4.21V93.82s3.32-.41,6.92-.41c2.19,0,4.49,.15,6.21,.64,10.63,3.02,18.03,9.57,18.03,19.66,0,11.23-6.27,18.34-18.03,21.34-1.52,.39-2.88,.71-4,.96-1.92,.43-3.27,2.14-3.27,4.1v23.58c0,2.29,1.83,4.15,4.11,4.21,.3,0,.55,.01,.79,.01,.77,0,1.33-.04,2.37-.11,15.46-1.14,26.9-6.11,37.2-14.92,11.83-10.11,17.75-23.17,17.75-39.17s-6.92-29.96-20.76-39.71c-8.49-5.94-20.46-10.62-34.18-12.23-1.71-.2-7.73-.27-15.02-.27h0Z"/><path class="b" d="M598.8,67.77v93.66h-24.02V67.77h24.02m1.79-6h-27.61c-2.32,0-4.21,1.88-4.21,4.21v97.25c0,2.32,1.88,4.21,4.21,4.21h27.61c2.32,0,4.21-1.88,4.21-4.21V65.98c0-2.32-1.88-4.21-4.21-4.21h0Z"/><path class="b" d="M690.54,65.14v20.86h-3.22c-8.57,0-17.53,.51-24.63,6.59-6.72,5.76-10.12,13.31-10.12,22.43s3.19,16.75,9.48,22.3c6.07,5.36,14.19,8.08,24.11,8.08h2.75c5.63,0,10.21-4.58,10.21-10.21v-8.12c0-3.31-2.69-6-6-6h-6.81v-12h33.01v24.44c0,8.84-3.29,15.62-10.36,21.34-7.64,6.18-16.86,9.19-28.21,9.19-14.99,0-27.34-4.8-37.75-14.68-10.32-9.79-15.34-21.38-15.34-35.43s5.08-25.37,15.52-34.69c10.64-9.5,23.66-14.11,39.79-14.11h7.57m1.79-6h-9.36c-17.51,0-32.11,5.21-43.79,15.64-11.68,10.42-17.52,23.48-17.52,39.17s5.74,28.9,17.21,39.79c11.48,10.89,25.44,16.33,41.88,16.33,12.66,0,23.32-3.51,31.99-10.53,8.67-7.02,12.58-15.69,12.58-26.01v-26.23c0-2.32-1.88-4.21-4.21-4.21h-36.6c-2.32,0-4.21,1.88-4.21,4.21v15.58c0,2.32,1.88,4.21,4.21,4.21h8.61v8.12c0,2.32-1.88,4.21-4.21,4.21h-2.75c-8.46,0-15.17-2.19-20.14-6.58-4.97-4.39-7.45-10.32-7.45-17.8s2.68-13.29,8.03-17.88c5.35-4.59,12.26-5.15,20.72-5.15h5.02c2.32,0,4.21-1.88,4.21-4.21v-24.45c0-2.32-1.88-4.21-4.21-4.21h0Z"/><path class="b" d="M770.41,67.77v93.66h-24.02V67.77h24.02m1.79-6h-27.61c-2.32,0-4.21,1.88-4.21,4.21v97.25c0,2.32,1.88,4.21,4.21,4.21h27.61c2.32,0,4.21-1.88,4.21-4.21V65.98c0-2.32-1.88-4.21-4.21-4.21h0Z"/><path class="b" d="M874.84,67.77v18.34h-21.51c-3.31,0-6,2.69-6,6v69.31h-24.02V92.11c0-3.31-2.69-6-6-6h-21.59v-18.34h79.12m1.79-6h-82.71c-2.32,0-4.21,1.88-4.21,4.21v21.93c0,2.32,1.88,4.21,4.21,4.21h23.39v71.11c0,2.32,1.88,4.21,4.21,4.21h27.61c2.32,0,4.21-1.88,4.21-4.21V92.11h23.3c2.32,0,4.21-1.88,4.21-4.21v-21.93c0-2.32-1.88-4.21-4.21-4.21h0Z"/><path class="b" d="M938.16,65.14c12.53,0,21.73,2.73,27.34,8.12,5.55,5.32,8.36,14.04,8.36,25.9v62.27h-24.02v-60.18c0-5.51-.88-9.34-2.78-12.04-1.59-2.26-4.77-4.95-10.94-4.95-3.39,0-14.43,1.23-14.43,16.99v8.95c0,5.63,4.58,10.21,10.21,10.21h.18v15.87h-.18c-5.63,0-10.21,4.58-10.21,10.21v14.95h-24.02v-61.19c0-11.31,3.33-19.75,10.18-25.81,6.96-6.16,17.16-9.29,30.32-9.29m0-6c-14.73,0-26.16,3.6-34.29,10.8-8.13,7.2-12.2,17.3-12.2,30.3v62.98c0,2.32,1.88,4.21,4.21,4.21h27.61c2.32,0,4.21-1.88,4.21-4.21v-16.74c0-2.32,1.88-4.21,4.21-4.21h4.29c1.04,0,1.88-.84,1.88-1.88v-24.43c0-.86-.7-1.56-1.56-1.56h-4.62c-2.32,0-4.21-1.88-4.21-4.21v-8.95c0-7.33,2.81-10.99,8.43-10.99,2.9,0,4.91,.8,6.03,2.4,1.12,1.6,1.69,4.46,1.69,8.59v61.97c0,2.32,1.88,4.21,4.21,4.21h27.61c2.32,0,4.21-1.88,4.21-4.21V99.16c0-13.62-3.4-23.7-10.2-30.23-6.8-6.53-17.3-9.79-31.5-9.79h0Z"/><path class="b" d="M1029.23,67.77v64.8c0,5.63,4.58,10.21,10.21,10.21h5.06v18.65h-39.29V67.77h24.02m1.79-6h-27.61c-2.32,0-4.21,1.88-4.21,4.21v97.25c0,2.32,1.88,4.21,4.21,4.21h42.87c2.32,0,4.21-1.88,4.21-4.21v-24.58c0-1.03-.83-1.86-1.86-1.86h-9.19c-2.32,0-4.21-1.88-4.21-4.21V65.98c0-2.32-1.88-4.21-4.21-4.21h0Z"/></g><path class="c" d="M108.43,113.63h-36.07c-1.52,0-2.35-1.77-1.37-2.94l48.44-57.92c.27-.32,.42-.73,.42-1.15V4.79c0-1.66-2.06-2.43-3.15-1.17L4.58,133.99c-3.62,4.21-.63,10.74,4.93,10.74H89.83c.99,0,1.79,.8,1.79,1.79v16.72c0,.99,.8,1.79,1.79,1.79h28.5c.99,0,1.79-.8,1.79-1.79"/><path class="c" d="M98.24,51.16L41.44,118.44c-3.62,4.21-.63,10.74,4.93,10.74h62.06v17.92"/><path class="c" d="M386.53,113.63h-36.07c-1.52,0-2.35-1.77-1.37-2.94l48.44-57.92c.27-.32,.42-.73,.42-1.15V4.79c0-1.66-2.06-2.43-3.15-1.17l-112.11,130.37c-3.62,4.21-.63,10.74,4.93,10.74h80.32c.99,0,1.79,.8,1.79,1.79v16.72c0,.99,.8,1.79,1.79,1.79h28.5c.99,0,1.79-.8,1.79-1.79"/><path class="c" d="M376.35,51.16l-56.81,67.28c-3.62,4.21-.63,10.74,4.93,10.74h62.06v17.92"/><g><g><path class="c" d="M222.23,145.75c-38.88,7.79-76.71-17.42-84.5-56.3"/><path class="c" d="M181.09,9.82c5.08-2.36,10.51-4.16,16.25-5.31,38.88-7.79,76.71,17.42,84.5,56.3,6.08,30.35-7.95,60.06-32.88,75.34"/></g><path class="c" d="M163.77,55.24c6.45-15.41,20.2-27.45,37.82-30.98,28.19-5.65,55.62,12.63,61.27,40.82,2.95,14.72-.63,29.24-8.73,40.55"/><path class="c" d="M224.62,46.45c9.27,3.88,16.51,12.15,18.64,22.75,3.4,16.96-7.6,33.46-24.56,36.85-13.24,2.65-26.19-3.47-32.86-14.34"/></g></svg>